<?xml version="1.0" encoding="UTF-8" standalone="no"?>
<svg
  width="48"
  height="48"
  version="1.1"
  xmlns="http://www.w3.org/2000/svg"
  xmlns:svg="http://www.w3.org/2000/svg"
>
  <path
    d="M 2.2827924,0 C 1.5038324,0 0.87090248,0.52603 0.87090248,1.17149 v 25.39667 h -0.01 v 20.2607 c 0,0.39663 0.24025002,0.74639 0.60481992,0.95852 v 0.18499 h 0.50664 c 0.0972,0.0173 0.19732,0.0276 0.30092,0.0276 h 15.5346916 16.7448 v 0 h 11.35822 c 0.10311,0 0.20276,-0.0104 0.29945,-0.0276 h 0.0696 v -0.0182 c 0.59938,-0.13566 1.04238,-0.58606 1.04238,-1.12526 V 26.96484 c 0.006,-0.0429 0.009,-0.0853 0.009,-0.12925 V 1.17154 c 0,-0.64586 -0.63293,-1.17149 -1.41189,-1.17149 h -15.7478 v 2e-4 h -2.06997 V 5e-5 Z"
    fill="#547dbe"
    fill-rule="evenodd"
  />
  <path
    d="m 2.8338324,2.7184 v 9.0404 H 11.538484 V 2.7184 Z m 11.2334116,0 v 9.0404 h 8.70465 V 2.7184 Z m 11.26696,0 v 9.0404 h 8.70465 V 2.7184 Z m 11.33258,0 v 9.0404 h 8.70465 V 2.7184 Z M 2.8338324,14.32723 v 8.84046 h 8.7046516 v -8.84046 z m 11.2334116,0 v 8.84046 h 8.70465 v -8.84046 z m 11.26696,0 v 8.84046 h 8.70465 v -8.84046 z m 11.33258,0 v 8.84046 h 8.70465 V 14.32723 Z M 2.8338324,25.73691 v 8.67308 h 8.7046516 v -8.67308 z m 11.2334116,0 v 8.67308 h 8.73721 v -8.67308 z m 11.26696,0 v 8.67308 h 8.70465 v -8.67308 z m 11.33258,0 v 8.67308 h 8.70465 V 25.73691 Z M 2.8693424,36.61859 v 8.67357 h 8.7046616 v -8.67357 z m 11.2339116,0 v 8.67357 h 8.73771 v -8.67357 z m 11.26697,0 v 8.67357 h 8.70465 v -8.67357 z m 11.33257,0 v 8.67357 h 8.70465 v -8.67357 z"
    fill="#ffffff"
    fill-rule="evenodd"
  />
  <path
    d="m 2.8254424,2.72091 v 9.04041 H 11.570544 V 2.72091 Z m 0,11.60889 v 8.84036 H 11.570544 V 14.3298 Z m 0,11.40958 v 8.67357 h 8.7451016 v -8.67357 z m 0.036,10.88167 v 8.67358 h 8.7451116 v -8.67358 z"
    fill="#547dbe"
    fill-rule="evenodd"
    fill-opacity="0.4"
  />
  <path
    d="m 30.820434,6.19497 c 1.85291,0 3.66241,0.29708 5.4285,0.89113 1.7656,0.5942 3.49568,1.50108 5.19073,2.72107 l -2.37584,3.25571 c -1.40941,-1.01391 -2.79515,-1.76647 -4.15721,-2.25759 -1.36206,-0.49111 -2.72412,-0.73667 -4.08618,-0.73667 -2.5817,0 -4.58902,0.53064 -6.02232,1.59218 -1.43334,1.06143 -2.14989,2.56661 -2.14989,4.51523 v 0.0237 c 0,1.36241 0.41177,2.40021 1.23532,3.11315 0.82355,0.71288 1.89253,1.24367 3.20703,1.59217 1.31446,0.3485 2.71608,0.67341 4.20493,0.97439 1.29842,0.26929 2.58944,0.58216 3.87257,0.9386 1.28263,0.3565 2.45032,0.8635 3.50356,1.52097 1.05324,0.65747 1.89288,1.5486 2.51841,2.6734 0.62553,1.12485 0.93829,2.59035 0.93829,4.39635 v 0.0477 c 0,3.18435 -1.10849,5.64817 -3.32597,7.39066 -2.21698,1.7425 -5.33724,2.61399 -9.35978,2.61399 -1.67882,0 -3.25863,-0.15841 -4.73958,-0.47523 -1.4808,-0.31681 -2.86644,-0.79204 -4.15737,-1.42617 -1.29077,-0.63363 -2.49827,-1.42567 -3.6227,-2.37612 l 2.54179,-3.20819 c 1.39383,1.204 2.91819,2.10717 4.57323,2.70928 1.6549,0.60205 3.45641,0.90307 5.40463,0.90307 2.73991,0 4.85823,-0.52704 6.35447,-1.58048 1.49674,-1.05359 2.24511,-2.53098 2.24511,-4.43213 v -0.0237 c 0,-1.37834 -0.37197,-2.43583 -1.11639,-3.17245 -0.74442,-0.73668 -1.71824,-1.2912 -2.92194,-1.66359 -1.2037,-0.37223 -2.51051,-0.6851 -3.91993,-0.9386 -1.34627,-0.23762 -2.69635,-0.51485 -4.05046,-0.83182 -1.35417,-0.31677 -2.59339,-0.7841 -3.71782,-1.40204 -1.12448,-0.61779 -2.03125,-1.49708 -2.72017,-2.63782 -0.68898,-1.14078 -1.03341,-2.66156 -1.03341,-4.5627 v -0.0237 c 0,-3.21623 1.06898,-5.70753 3.20718,-7.47386 2.13805,-1.76648 5.15506,-2.64981 9.05121,-2.64981 z"
    stroke="#eb594d"
    stroke-width="3"
    stroke-linejoin="round"
    stroke-miterlimit="10"
    fill="#f9cecb"
    fill-rule="evenodd"
  />
</svg>
