<?xml version="1.0" encoding="UTF-8" standalone="no"?>
<svg
   width="974"
   height="974"
   viewBox="0 0 974 974"
   xml:space="preserve"
   overflow="hidden"
   version="1.1"
   xmlns="http://www.w3.org/2000/svg"
   xmlns:svg="http://www.w3.org/2000/svg">
   <path
      d="m 46.765,0.923 c -15.79,0 -28.62,10.663 -28.62,23.747 v 514.81 h -0.2 v 410.7 c 0,8.04 4.87,15.13 12.26,19.43 v 3.75 h 10.27 c 1.97,0.35 4,0.56 6.1,0.56 h 314.9 339.43 v 0 h 230.24 c 2.09,0 4.11,-0.21 6.07,-0.56 h 1.41 v -0.37 c 12.15,-2.75 21.13,-11.88 21.13,-22.81 V 547.52 c 0.12,-0.87 0.19,-1.73 0.19,-2.62 V 24.67 c 0,-13.092 -12.83,-23.747 -28.62,-23.747 h -319.22 v 0.004 h -41.96 V 0.923 Z"
      fill="#547dbe"
      fill-rule="evenodd"
      id="path846" />
   <path
      d="m 57.935,56.027 v 183.256 h 176.45 V 56.027 Z m 227.71,0 v 183.256 h 176.45 V 56.027 Z m 228.39,0 v 183.256 h 176.45 V 56.027 Z m 229.72,0 v 183.256 h 176.45 V 56.027 Z M 57.935,291.347 V 470.55 h 176.45 V 291.347 Z m 227.71,0 V 470.55 h 176.45 V 291.347 Z m 228.39,0 V 470.55 h 176.45 V 291.347 Z m 229.72,0 V 470.55 h 176.45 V 291.347 Z M 57.935,522.63 v 175.81 h 176.45 V 522.63 Z m 227.71,0 v 175.81 h 177.11 V 522.63 Z m 228.39,0 v 175.81 h 176.45 V 522.63 Z m 229.72,0 v 175.81 h 176.45 V 522.63 Z m -685.1,220.58 v 175.82 h 176.45 V 743.21 Z m 227.72,0 v 175.82 h 177.12 V 743.21 Z m 228.39,0 v 175.82 h 176.45 V 743.21 Z m 229.72,0 v 175.82 h 176.45 V 743.21 Z"
      fill="#ffffff"
      fill-rule="evenodd"
      id="path848" />
   <path
      d="m 57.765,56.078 v 183.256 h 177.27 V 56.078 Z m 0,235.321 V 470.6 h 177.27 V 291.399 Z m 0,231.281 V 698.5 h 177.27 V 522.68 Z m 0.73,220.58 v 175.82 h 177.27 V 743.26 Z"
      fill="#547dbe"
      fill-rule="evenodd"
      fill-opacity="0.4"
      id="path850" />
   <path
      d="m 625.245,126.49977 c 37.56,0 74.24,6.02199 110.04,18.06396 35.79,12.04497 70.86,30.42804 105.22,55.1582 l -48.16,65.99577 c -28.57,-20.55278 -56.66,-35.80782 -84.27,-45.7631 -27.61,-9.95528 -55.22,-14.93293 -82.83,-14.93293 -52.333,0 -93.023,10.75655 -122.077,32.27465 -29.055,21.5161 -43.58,52.02716 -43.58,91.5272 v 0.48115 c 0,27.61713 8.347,48.65403 25.041,63.10583 16.694,14.4508 38.363,25.2103 65.009,32.2746 26.645,7.0644 55.057,13.6505 85.237,19.7516 26.32,5.4588 52.49,11.8008 78.5,19.0262 26,7.2264 49.67,17.5038 71.02,30.8312 21.35,13.3274 38.37,31.3914 51.05,54.1919 12.68,22.8015 19.02,52.5083 19.02,89.1174 v 0.9663 c 0,64.5493 -22.47,114.4928 -67.42,149.8144 -44.94,35.3217 -108.19,52.9875 -189.73,52.9875 -34.031,0 -66.055,-3.2111 -96.075,-9.6332 -30.017,-6.4221 -58.105,-16.0553 -84.273,-28.9095 -26.165,-12.8443 -50.642,-28.8995 -73.435,-48.1659 l 51.524,-65.0325 c 28.254,24.4061 59.154,42.7141 92.703,54.9192 33.546,12.204 70.064,18.306 109.556,18.306 55.54,0 98.48,-10.6835 128.81,-32.0376 30.34,-21.357 45.51,-51.3049 45.51,-89.8426 v -0.4812 c 0,-27.9402 -7.54,-49.3763 -22.63,-64.3082 -15.09,-14.9329 -34.83,-26.1736 -59.23,-33.7221 -24.4,-7.5455 -50.89,-13.8876 -79.46,-19.0263 -27.29,-4.8166 -54.657,-10.4364 -82.106,-16.8615 -27.45,-6.4212 -52.57,-15.8943 -75.363,-28.4204 -22.794,-12.5232 -41.175,-30.347 -55.14,-53.4707 -13.966,-23.1246 -20.948,-53.9518 -20.948,-92.48947 v -0.48116 c 0,-65.19551 21.669,-115.69617 65.012,-151.50098 43.34,-35.80781 104.497,-53.71372 183.475,-53.71372 z"
      stroke="#eb594d"
      stroke-width="54.9909"
      stroke-linejoin="round"
      stroke-miterlimit="10"
      fill="#f9cecb"
      fill-rule="evenodd"
      id="path852" />
</svg>