<svg width="943" height="974" xmlns="http://www.w3.org/2000/svg" xmlns:xlink="http://www.w3.org/1999/xlink" xml:space="preserve" overflow="hidden"><g transform="translate(-1606 -644)"><path d="M1635.72 644.923C1619.93 644.923 1607.1 655.586 1607.1 668.67L1607.1 1183.48 1606.9 1183.48 1606.9 1594.18C1606.9 1602.22 1611.77 1609.31 1619.16 1613.61L1619.16 1617.36 1629.43 1617.36C1631.4 1617.71 1633.43 1617.92 1635.53 1617.92L1950.43 1617.92 2289.86 1617.92 2289.86 1617.92 2520.1 1617.92C2522.19 1617.92 2524.21 1617.71 2526.17 1617.36L2527.58 1617.36 2527.58 1616.99C2539.73 1614.24 2548.71 1605.11 2548.71 1594.18L2548.71 1191.52C2548.83 1190.65 2548.9 1189.79 2548.9 1188.9L2548.9 668.67C2548.9 655.578 2536.07 644.923 2520.28 644.923L2201.06 644.923 2201.06 644.927 2159.1 644.927 2159.1 644.923Z" fill="#547DBE" fill-rule="evenodd"/><path d="M1646.89 700.027 1646.89 883.283 1823.34 883.283 1823.34 700.027ZM1874.6 700.027 1874.6 883.283 2051.05 883.283 2051.05 700.027ZM2102.99 700.027 2102.99 883.283 2279.44 883.283 2279.44 700.027ZM2332.71 700.027 2332.71 883.283 2509.16 883.283 2509.16 700.027ZM1646.89 935.347 1646.89 1114.55 1823.34 1114.55 1823.34 935.347ZM1874.6 935.347 1874.6 1114.55 2051.05 1114.55 2051.05 935.347ZM2102.99 935.347 2102.99 1114.55 2279.44 1114.55 2279.44 935.347ZM2332.71 935.347 2332.71 1114.55 2509.16 1114.55 2509.16 935.347ZM1646.89 1166.63 1646.89 1342.44 1823.34 1342.44 1823.34 1166.63ZM1874.6 1166.63 1874.6 1342.44 2051.71 1342.44 2051.71 1166.63ZM2102.99 1166.63 2102.99 1342.44 2279.44 1342.44 2279.44 1166.63ZM2332.71 1166.63 2332.71 1342.44 2509.16 1342.44 2509.16 1166.63ZM1647.61 1387.21 1647.61 1563.03 1824.06 1563.03 1824.06 1387.21ZM1875.33 1387.21 1875.33 1563.03 2052.45 1563.03 2052.45 1387.21ZM2103.72 1387.21 2103.72 1563.03 2280.17 1563.03 2280.17 1387.21ZM2333.44 1387.21 2333.44 1563.03 2509.89 1563.03 2509.89 1387.21Z" fill="#FFFFFF" fill-rule="evenodd"/><path d="M1646.72 700.078 1646.72 883.334 1823.99 883.334 1823.99 700.078ZM1646.72 935.399 1646.72 1114.6 1823.99 1114.6 1823.99 935.399ZM1646.72 1166.68 1646.72 1342.5 1823.99 1342.5 1823.99 1166.68ZM1647.45 1387.26 1647.45 1563.08 1824.72 1563.08 1824.72 1387.26Z" fill="#547DBE" fill-rule="evenodd" fill-opacity="0.4"/><g><g><g><path d="M1036.05 393.244C1073.61 393.244 1110.29 399.264 1146.09 411.302 1181.88 423.343 1216.95 441.72 1251.31 466.442L1203.15 532.416C1174.58 511.87 1146.49 496.62 1118.88 486.668 1091.27 476.716 1063.66 471.74 1036.05 471.74 983.717 471.74 943.027 482.493 913.973 504.004 884.918 525.513 870.393 556.014 870.393 595.501L870.393 595.982C870.393 623.59 878.74 644.62 895.434 659.067 912.128 673.513 933.797 684.269 960.443 691.331 987.088 698.393 1015.5 704.977 1045.68 711.076 1072 716.533 1098.17 722.873 1124.18 730.096 1150.18 737.32 1173.85 747.594 1195.2 760.917 1216.55 774.24 1233.57 792.298 1246.25 815.091 1258.93 837.885 1265.27 867.582 1265.27 904.179L1265.27 905.145C1265.27 969.673 1242.8 1019.6 1197.85 1054.91 1152.91 1090.22 1089.66 1107.88 1008.12 1107.88 974.089 1107.88 942.065 1104.67 912.045 1098.25 882.028 1091.83 853.94 1082.2 827.772 1069.35 801.607 1056.51 777.13 1040.46 754.337 1021.2L805.861 956.189C834.115 980.587 865.015 998.889 898.564 1011.09 932.11 1023.29 968.628 1029.39 1008.12 1029.39 1063.66 1029.39 1106.6 1018.71 1136.93 997.363 1167.27 976.013 1182.44 946.075 1182.44 907.55L1182.44 907.069C1182.44 879.138 1174.9 857.709 1159.81 842.782 1144.72 827.854 1124.98 816.617 1100.58 809.071 1076.18 801.528 1049.69 795.188 1021.12 790.051 993.83 785.236 966.463 779.618 939.014 773.195 911.564 766.776 886.444 757.306 863.651 744.784 840.857 732.265 822.476 714.447 808.511 691.331 794.545 668.214 787.563 637.397 787.563 598.872L787.563 598.391C787.563 533.217 809.232 482.733 852.575 446.94 895.915 411.144 957.072 393.244 1036.05 393.244Z" stroke="#EB594D" stroke-width="54.9818" stroke-linejoin="round" stroke-miterlimit="10" fill="#F9CECB" fill-rule="evenodd" transform="matrix(1 0 0 1.00033 1178.15 377.126)"/></g></g></g></g></svg>