<?xml version="1.0" encoding="UTF-8" standalone="no"?>
<svg
   width="135"
   height="37"
   xml:space="preserve"
   overflow="hidden"
   version="1.1"
   id="svg1265"
   sodipodi:docname="logo-text2.svg"
   inkscape:version="1.1.2 (b8e25be833, 2022-02-05)"
   xmlns:inkscape="http://www.inkscape.org/namespaces/inkscape"
   xmlns:sodipodi="http://sodipodi.sourceforge.net/DTD/sodipodi-0.dtd"
   xmlns="http://www.w3.org/2000/svg"
   xmlns:svg="http://www.w3.org/2000/svg"><sodipodi:namedview
     id="namedview1267"
     pagecolor="#ffffff"
     bordercolor="#666666"
     borderopacity="1.0"
     inkscape:pageshadow="2"
     inkscape:pageopacity="0.0"
     inkscape:pagecheckerboard="0"
     showgrid="false"
     fit-margin-top="0"
     fit-margin-left="0"
     fit-margin-right="0"
     fit-margin-bottom="0"
     inkscape:zoom="4.7671078"
     inkscape:cx="52.023157"
     inkscape:cy="38.388055"
     inkscape:window-width="1920"
     inkscape:window-height="1057"
     inkscape:window-x="-1928"
     inkscape:window-y="-4"
     inkscape:window-maximized="1"
     inkscape:current-layer="svg1265" /><defs
     id="defs1229"><clipPath
       id="clip0"><rect
         x="437"
         y="266"
         width="3551"
         height="974"
         id="rect1217" /></clipPath><clipPath
       id="clip1"><rect
         x="1410"
         y="495"
         width="2578"
         height="636"
         id="rect1220" /></clipPath><clipPath
       id="clip2"><rect
         x="1410"
         y="495"
         width="2578"
         height="636"
         id="rect1223" /></clipPath><clipPath
       id="clip3"><rect
         x="1410"
         y="495"
         width="2578"
         height="636"
         id="rect1226" /></clipPath></defs><path
     d="M 1.0984,0 C 0.4978,0 0.01,0.40548 0.01,0.90302 v 19.5766 H 0 v 15.61762 c 0,0.30574 0.185,0.57535 0.466,0.73886 v 0.1426 H 0.8565 C 0.9315,36.992 1.0086,37 1.0883,37 H 13.063 25.9706 v 0 h 8.7553 c 0.08,0 0.1563,-0.008 0.2308,-0.0213 h 0.054 v -0.0141 c 0.4621,-0.10457 0.8035,-0.45175 0.8035,-0.86739 v -15.312 c 0,-0.0328 0.01,-0.0658 0.01,-0.0995 V 0.90304 C 35.8242,0.4052 35.3363,6e-5 34.7358,6e-5 H 22.5969 V 1.7e-4 H 21.0014 V 6e-5 Z"
     fill="#547dbe"
     id="path1231" /><path
     d="M 1.4849,2.09543 V 9.06408 H 8.1947 V 2.09543 Z m 8.6592,0 V 9.06408 H 16.854 V 2.09543 Z m 8.685,0 v 6.96865 h 6.7098 V 2.09543 Z m 8.7355,0 v 6.96865 h 6.7099 V 2.09543 Z M 1.4849,11.04391 v 6.81444 h 6.7098 v -6.81444 z m 8.6592,0 v 6.81444 h 6.7099 v -6.81444 z m 8.685,0 v 6.81444 h 6.7098 v -6.81444 z m 8.7355,0 v 6.81444 h 6.7099 V 11.04391 Z M 1.4849,19.83872 v 6.68584 h 6.7098 v -6.68584 z m 8.6592,0 v 6.68584 h 6.7351 v -6.68584 z m 8.685,0 v 6.68584 h 6.7098 v -6.68584 z m 8.7355,0 v 6.68584 h 6.7099 v -6.68584 z m -26.052,8.38811 v 6.68588 h 6.7098 v -6.68588 z m 8.6592,0 v 6.68588 h 6.7355 v -6.68588 z m 8.685,0 v 6.68588 h 6.7099 v -6.68588 z m 8.7356,0 v 6.68588 h 6.7098 v -6.68588 z"
     fill="#ffffff"
     fill-rule="evenodd"
     id="path1233" /><path
     d="m 1.4785,2.09737 v 6.96865 h 6.741 V 2.09737 Z m 0,8.94851 v 6.81449 h 6.741 v -6.81449 z m 0,8.79485 v 6.6858 h 6.741 v -6.6858 z m 0.028,8.388 v 6.68588 h 6.741 v -6.68588 z"
     fill="#547dbe"
     fill-rule="evenodd"
     fill-opacity="0.4"
     id="path1235" /><path
     id="path1247-3"
     d="M 120.9895,32.82218 V 10.13469 h 4.7986 v 18.71559 h 9.2153 v 3.9719 z m 0.4853,0 h -5.4976 l -5.275,-8.57923 -5.2751,8.57923 h -5.1481 l 7.5314,-11.69325 -7.0545,-10.99424 h 5.3067 l 4.8936,8.16618 4.7986,-8.16618 h 5.1796 l -7.118,11.24826 z M 95.9361,29.04099 c 0.5297,0 1.0381,-0.053 1.5254,-0.15888 0.4872,-0.10591 0.9745,-0.23299 1.4617,-0.3813 v 3.52703 c -0.5084,0.21183 -1.144,0.39189 -1.9066,0.54018 -0.7415,0.16946 -1.5571,0.2542 -2.4469,0.2542 -1.038,0 -1.9701,-0.16947 -2.7964,-0.5084 -0.805,-0.33894 -1.4511,-0.92148 -1.9384,-1.74763 -0.466,-0.84734 -0.6991,-2.01241 -0.6991,-3.49526 v -8.35686 h -2.2562 v -2.00181 l 2.6058,-1.58876 1.3664,-3.65411 h 3.0189 v 3.6859 h 4.8619 v 3.55878 h -4.8619 v 8.35686 c 0,0.65668 0.1906,1.15449 0.5719,1.49342 0.3814,0.31776 0.8792,0.47664 1.4935,0.47664 z M 79.1445,14.83743 c 2.3939,0 4.29,0.68847 5.6882,2.06535 1.3983,1.35581 2.0972,3.29411 2.0972,5.81491 v 2.28769 H 75.7444 c 0.042,1.33475 0.4342,2.38315 1.1758,3.14596 0.7626,0.76244 1.8113,1.14385 3.1459,1.14385 1.1227,0 2.1396,-0.10609 3.0506,-0.3179 0.9109,-0.23311 1.8536,-0.58257 2.8283,-1.0484 v 3.654 c -0.8476,0.42362 -1.7479,0.73087 -2.7012,0.92139 -0.9322,0.21181 -2.0655,0.3179 -3.4001,0.3179 -1.7373,0 -3.2731,-0.3179 -4.6078,-0.95333 -1.3346,-0.65673 -2.3833,-1.64162 -3.1459,-2.95507 -0.7627,-1.31344 -1.144,-2.96571 -1.144,-4.9568 0,-2.03367 0.3389,-3.71788 1.0169,-5.05235 0.6991,-1.35578 1.6629,-2.37258 2.8917,-3.0504 1.2286,-0.67783 2.6586,-1.0168 4.2899,-1.0168 z m 0.032,3.36815 c -0.911,0 -1.6736,0.29653 -2.2879,0.88967 -0.5933,0.59322 -0.9428,1.51461 -1.0487,2.76455 h 6.6415 c -0.021,-1.05904 -0.2967,-1.92796 -0.8262,-2.60567 -0.5297,-0.69905 -1.3559,-1.04855 -2.4787,-1.04855 z m -17.011,-3.36815 c 2.3939,0 4.29,0.68847 5.6882,2.06535 1.3982,1.35581 2.0973,3.29411 2.0973,5.81491 v 2.28769 H 58.7653 c 0.042,1.33475 0.4343,2.38315 1.1758,3.14596 0.7627,0.76244 1.8113,1.14385 3.1459,1.14385 1.1228,0 2.1397,-0.10609 3.0507,-0.3179 0.911,-0.23311 1.8536,-0.58257 2.8282,-1.0484 v 3.654 c -0.8475,0.42362 -1.7478,0.73087 -2.7011,0.92139 -0.9321,0.21181 -2.0655,0.3179 -3.4002,0.3179 -1.7372,0 -3.273,-0.3179 -4.6077,-0.95333 -1.3347,-0.65673 -2.3833,-1.64162 -3.1459,-2.95507 -0.7627,-1.31344 -1.144,-2.96571 -1.144,-4.9568 0,-2.03367 0.3389,-3.71788 1.0168,-5.05235 0.6991,-1.35578 1.6631,-2.37258 2.8918,-3.0504 1.2287,-0.67783 2.6587,-1.0168 4.2899,-1.0168 z m 0.032,3.36815 c -0.911,0 -1.6736,0.29653 -2.288,0.88967 -0.5931,0.59322 -0.9427,1.51461 -1.0486,2.76455 h 6.6414 c -0.021,-1.05904 -0.2965,-1.92796 -0.8262,-2.60567 -0.5297,-0.69905 -1.3558,-1.04855 -2.4786,-1.04855 z M 41.7033,13.59817 c 0,0.84739 -0.032,1.66288 -0.095,2.44668 -0.042,0.78385 -0.085,1.33456 -0.1271,1.65231 h 0.2542 c 0.5508,-0.88968 1.2605,-1.53575 2.1291,-1.93827 0.8686,-0.40251 1.8325,-0.60371 2.8917,-0.60371 1.8855,0 3.3896,0.50838 4.5124,1.52518 1.144,0.99558 1.716,2.60556 1.716,4.82998 V 32.82218 H 48.2498 V 22.68575 c 0,-2.49951 -0.9322,-3.74937 -2.7964,-3.74937 -1.4194,0 -2.4045,0.49788 -2.9553,1.49362 -0.5297,0.97424 -0.7945,2.38314 -0.7945,4.22592 v 8.16626 H 36.9688 V 8.67305 h 4.7348 z"
     fill="#eb594d" /><path
     d="m 23.345,4.88926 c 1.4307,0 2.8282,0.229 4.1916,0.68692 1.3636,0.45803 2.6999,1.15712 4.0084,2.09748 l -1.8344,2.50966 C 28.6222,9.40175 27.5522,8.82162 26.5004,8.44306 25.4486,8.0645 24.3968,7.87524 23.345,7.87524 c -1.9935,0 -3.5435,0.40902 -4.6503,1.22728 -1.1068,0.81819 -1.6601,1.97842 -1.6601,3.48048 v 0.0183 c 0,1.05019 0.3179,1.8502 0.9538,2.39973 0.636,0.54952 1.4615,0.95869 2.4765,1.22731 1.015,0.26862 2.0975,0.51907 3.2468,0.75111 1.003,0.20755 1.9996,0.44872 2.9905,0.7235 0.9905,0.27478 1.8922,0.66562 2.7057,1.1724 0.813,0.50679 1.4615,1.1937 1.9444,2.06075 0.4832,0.86705 0.7247,1.99672 0.7247,3.38884 v 0.0367 c 0,2.45464 -0.8561,4.35355 -2.5682,5.69703 -1.7122,1.34311 -4.1216,2.01505 -7.2278,2.01505 -1.2963,0 -2.5162,-0.12207 -3.6598,-0.36658 -1.1434,-0.24413 -2.2134,-0.61071 -3.2102,-1.09898 -0.9968,-0.48864 -1.9292,-1.09897 -2.7975,-1.83175 l 1.9628,-2.47308 c 1.0763,0.92809 2.2534,1.62428 3.5314,2.08825 1.2779,0.46431 2.669,0.69627 4.1733,0.69627 2.1158,0 3.7513,-0.40613 4.9071,-1.21827 1.1558,-0.81214 1.7335,-1.95096 1.7335,-3.4164 v -0.0183 c 0,-1.06247 -0.2872,-1.87762 -0.8622,-2.44543 -0.5746,-0.56786 -1.3267,-0.99528 -2.2563,-1.28234 -0.9292,-0.28695 -1.9383,-0.52812 -3.0267,-0.72354 -1.0397,-0.18314 -2.0822,-0.39685 -3.1278,-0.64117 -1.0457,-0.24417 -2.0026,-0.60444 -2.8709,-1.08076 -0.8683,-0.47621 -1.5685,-1.15396 -2.1005,-2.0333 -0.532,-0.87933 -0.798,-2.05162 -0.798,-3.5171 v -0.0183 c 0,-2.4792 0.8255,-4.39955 2.4766,-5.7611 1.651,-1.36167 3.9807,-2.04258 6.9892,-2.04258 z"
     stroke="#eb594d"
     stroke-width="2"
     stroke-linejoin="round"
     stroke-miterlimit="10"
     fill="#f9cecb"
     fill-rule="evenodd"
     id="path1255-5" /></svg>
